<svg xmlns="http://www.w3.org/2000/svg" xmlns:xlink="http://www.w3.org/1999/xlink" width="2000" zoomAndPan="magnify" viewBox="0 0 1500 1499.999933" height="2000" preserveAspectRatio="xMidYMid meet" version="1.0"><defs><g/><clipPath id="c0c01a7e90"><path d="M 28.625 750 L 741.871094 750 L 741.871094 1463.25 L 28.625 1463.25 Z M 28.625 750 " clip-rule="nonzero"/></clipPath><clipPath id="3edd0cea54"><path d="M 28.625 29.59375 L 741.871094 29.59375 L 741.871094 742.84375 L 28.625 742.84375 Z M 28.625 29.59375 " clip-rule="nonzero"/></clipPath><clipPath id="0a7e47ba56"><path d="M 0.625 0.59375 L 713.871094 0.59375 L 713.871094 713.597656 L 0.625 713.597656 Z M 0.625 0.59375 " clip-rule="nonzero"/></clipPath><clipPath id="9672ffe1a5"><rect x="0" width="714" y="0" height="714"/></clipPath><clipPath id="51ca2fe279"><path d="M 750.882812 29.59375 L 1464 29.59375 L 1464 742.84375 L 750.882812 742.84375 Z M 750.882812 29.59375 " clip-rule="nonzero"/></clipPath><clipPath id="8f89514d1d"><path d="M 0.882812 0.59375 L 713.886719 0.59375 L 713.886719 713.597656 L 0.882812 713.597656 Z M 0.882812 0.59375 " clip-rule="nonzero"/></clipPath><clipPath id="8921bb4608"><rect x="0" width="714" y="0" height="714"/></clipPath><clipPath id="0e845850df"><path d="M 750.882812 750 L 1464 750 L 1464 1463.25 L 750.882812 1463.25 Z M 750.882812 750 " clip-rule="nonzero"/></clipPath><clipPath id="0314be2347"><path d="M 0.882812 0 L 713.886719 0 L 713.886719 713.25 L 0.882812 713.25 Z M 0.882812 0 " clip-rule="nonzero"/></clipPath><clipPath id="525f1548e2"><rect x="0" width="714" y="0" height="714"/></clipPath></defs><rect x="-150" width="1800" fill="#ffffff" y="-149.999993" height="1799.99992" fill-opacity="1"/><rect x="-150" width="1800" fill="#ffffff" y="-149.999993" height="1799.99992" fill-opacity="1"/><g clip-path="url(#c0c01a7e90)"><path fill="#000000" d="M 733.121094 1376.195312 L 178.773438 1376.195312 L 178.773438 1330.804688 L 733.121094 1330.804688 C 737.992188 1330.804688 741.9375 1326.855469 741.9375 1321.984375 C 741.9375 1317.113281 737.992188 1313.164062 733.121094 1313.164062 L 178.773438 1313.164062 L 178.773438 758.820312 C 178.773438 753.949219 174.824219 750 169.953125 750 C 165.085938 750 161.136719 753.949219 161.136719 758.820312 L 161.136719 1313.164062 L 115.742188 1313.164062 L 115.742188 758.820312 C 115.742188 753.949219 111.792969 750 106.925781 750 C 102.054688 750 98.105469 753.949219 98.105469 758.820312 L 98.105469 1313.164062 L 37.441406 1313.164062 C 32.570312 1313.164062 28.625 1317.113281 28.625 1321.984375 C 28.625 1326.855469 32.570312 1330.804688 37.441406 1330.804688 L 98.105469 1330.804688 L 98.105469 1376.195312 L 37.441406 1376.195312 C 32.570312 1376.195312 28.625 1380.144531 28.625 1385.015625 C 28.625 1389.886719 32.570312 1393.835938 37.441406 1393.835938 L 98.105469 1393.835938 L 98.105469 1454.496094 C 98.105469 1459.367188 102.054688 1463.316406 106.925781 1463.316406 C 111.792969 1463.316406 115.742188 1459.367188 115.742188 1454.496094 L 115.742188 1393.835938 L 161.136719 1393.835938 L 161.136719 1454.496094 C 161.136719 1459.367188 165.085938 1463.316406 169.953125 1463.316406 C 174.824219 1463.316406 178.773438 1459.367188 178.773438 1454.496094 L 178.773438 1393.835938 L 733.121094 1393.835938 C 737.992188 1393.835938 741.9375 1389.886719 741.9375 1385.015625 C 741.9375 1380.144531 737.992188 1376.195312 733.121094 1376.195312 Z M 115.742188 1376.195312 L 115.742188 1330.804688 L 161.136719 1330.804688 L 161.136719 1376.195312 Z M 115.742188 1376.195312 " fill-opacity="1" fill-rule="nonzero"/></g><g clip-path="url(#3edd0cea54)"><g transform="matrix(1, 0, 0, 1, 28, 29)"><g clip-path="url(#9672ffe1a5)"><g clip-path="url(#0a7e47ba56)"><path fill="#000000" d="M 705.121094 87.402344 L 150.773438 87.402344 L 150.773438 132.796875 L 705.121094 132.796875 C 709.992188 132.796875 713.9375 136.746094 713.9375 141.613281 C 713.9375 146.484375 709.992188 150.433594 705.121094 150.433594 L 150.773438 150.433594 L 150.773438 704.78125 C 150.773438 709.652344 146.824219 713.597656 141.953125 713.597656 C 137.085938 713.597656 133.136719 709.652344 133.136719 704.78125 L 133.136719 150.433594 L 87.742188 150.433594 L 87.742188 704.78125 C 87.742188 709.652344 83.792969 713.597656 78.925781 713.597656 C 74.054688 713.597656 70.105469 709.652344 70.105469 704.78125 L 70.105469 150.433594 L 9.441406 150.433594 C 4.570312 150.433594 0.625 146.484375 0.625 141.613281 C 0.625 136.746094 4.570312 132.796875 9.441406 132.796875 L 70.105469 132.796875 L 70.105469 87.402344 L 9.441406 87.402344 C 4.570312 87.402344 0.625 83.453125 0.625 78.585938 C 0.625 73.714844 4.570312 69.765625 9.441406 69.765625 L 70.105469 69.765625 L 70.105469 9.101562 C 70.105469 4.230469 74.054688 0.28125 78.925781 0.28125 C 83.792969 0.28125 87.742188 4.230469 87.742188 9.101562 L 87.742188 69.765625 L 133.136719 69.765625 L 133.136719 9.101562 C 133.136719 4.230469 137.085938 0.28125 141.953125 0.28125 C 146.824219 0.28125 150.773438 4.230469 150.773438 9.101562 L 150.773438 69.765625 L 705.121094 69.765625 C 709.992188 69.765625 713.9375 73.714844 713.9375 78.585938 C 713.9375 83.453125 709.992188 87.402344 705.121094 87.402344 Z M 87.742188 87.402344 L 87.742188 132.796875 L 133.136719 132.796875 L 133.136719 87.402344 Z M 87.742188 87.402344 " fill-opacity="1" fill-rule="nonzero"/></g></g></g></g><g clip-path="url(#51ca2fe279)"><g transform="matrix(1, 0, 0, 1, 750, 29)"><g clip-path="url(#8921bb4608)"><g clip-path="url(#8f89514d1d)"><path fill="#000000" d="M 9.390625 87.402344 L 563.738281 87.402344 L 563.738281 132.796875 L 9.390625 132.796875 C 4.519531 132.796875 0.570312 136.746094 0.570312 141.613281 C 0.570312 146.484375 4.519531 150.433594 9.390625 150.433594 L 563.738281 150.433594 L 563.738281 704.78125 C 563.738281 709.652344 567.683594 713.597656 572.554688 713.597656 C 577.425781 713.597656 581.375 709.652344 581.375 704.78125 L 581.375 150.433594 L 626.765625 150.433594 L 626.765625 704.78125 C 626.765625 709.652344 630.714844 713.597656 635.585938 713.597656 C 640.457031 713.597656 644.40625 709.652344 644.40625 704.78125 L 644.40625 150.433594 L 705.066406 150.433594 C 709.9375 150.433594 713.886719 146.484375 713.886719 141.613281 C 713.886719 136.746094 709.9375 132.796875 705.066406 132.796875 L 644.40625 132.796875 L 644.40625 87.402344 L 705.066406 87.402344 C 709.9375 87.402344 713.886719 83.453125 713.886719 78.585938 C 713.886719 73.714844 709.9375 69.765625 705.066406 69.765625 L 644.40625 69.765625 L 644.40625 9.101562 C 644.40625 4.230469 640.457031 0.28125 635.585938 0.28125 C 630.714844 0.28125 626.765625 4.230469 626.765625 9.101562 L 626.765625 69.765625 L 581.375 69.765625 L 581.375 9.101562 C 581.375 4.230469 577.425781 0.28125 572.554688 0.28125 C 567.683594 0.28125 563.738281 4.230469 563.738281 9.101562 L 563.738281 69.765625 L 9.390625 69.765625 C 4.519531 69.765625 0.570312 73.714844 0.570312 78.585938 C 0.570312 83.453125 4.519531 87.402344 9.390625 87.402344 Z M 626.765625 87.402344 L 626.765625 132.796875 L 581.375 132.796875 L 581.375 87.402344 Z M 626.765625 87.402344 " fill-opacity="1" fill-rule="nonzero"/></g></g></g></g><g fill="#000000" fill-opacity="1"><g transform="translate(312.223805, 1107.084317)"><g><path d="M 77.109375 6.0625 C 64.398438 6.0625 58.046875 2.019531 58.046875 -6.0625 L 58.046875 -401.171875 C 58.046875 -405.210938 59.632812 -408.171875 62.8125 -410.046875 C 65.988281 -411.929688 70.753906 -412.875 77.109375 -412.875 C 82.890625 -412.875 87.003906 -411.789062 89.453125 -409.625 C 91.910156 -407.457031 94.148438 -404.640625 96.171875 -401.171875 L 240.015625 -146.4375 L 384.28125 -401.171875 C 386.007812 -404.640625 388.171875 -407.457031 390.765625 -409.625 C 393.367188 -411.789062 397.414062 -412.875 402.90625 -412.875 C 415.613281 -412.875 421.96875 -408.972656 421.96875 -401.171875 L 421.96875 -6.0625 C 421.96875 -2.019531 420.378906 1.007812 417.203125 3.03125 C 414.023438 5.050781 409.257812 6.0625 402.90625 6.0625 C 390.488281 6.0625 384.28125 2.019531 384.28125 -6.0625 L 384.28125 -327.53125 L 259.9375 -108.734375 C 257.914062 -105.273438 255.53125 -102.894531 252.78125 -101.59375 C 250.039062 -100.289062 245.925781 -99.640625 240.4375 -99.640625 C 234.957031 -99.640625 230.769531 -100.144531 227.875 -101.15625 C 224.988281 -102.164062 222.390625 -104.691406 220.078125 -108.734375 L 96.171875 -327.53125 L 96.171875 -6.0625 C 96.171875 -2.019531 94.582031 1.007812 91.40625 3.03125 C 88.226562 5.050781 83.460938 6.0625 77.109375 6.0625 Z M 77.109375 6.0625 "/></g></g></g><g fill="#000000" fill-opacity="1"><g transform="translate(792.250134, 1107.084317)"><g><path d="M 77.109375 0 C 64.398438 0 58.046875 -4.039062 58.046875 -12.125 L 58.046875 -394.25 C 58.046875 -398.289062 59.632812 -401.25 62.8125 -403.125 C 65.988281 -405 70.753906 -405.9375 77.109375 -405.9375 L 159.859375 -405.9375 C 194.234375 -405.9375 223.910156 -401.023438 248.890625 -391.203125 C 273.878906 -381.390625 294.601562 -368.035156 311.0625 -351.140625 C 327.519531 -334.242188 339.71875 -314.890625 347.65625 -293.078125 C 355.601562 -271.273438 359.578125 -248.242188 359.578125 -223.984375 C 359.578125 -196.546875 356.757812 -171.269531 351.125 -148.15625 C 345.5 -125.050781 336.835938 -104.398438 325.140625 -86.203125 C 313.441406 -68.015625 298.710938 -52.492188 280.953125 -39.640625 C 263.191406 -26.785156 242.109375 -16.960938 217.703125 -10.171875 C 193.296875 -3.390625 165.492188 0 134.296875 0 Z M 96.171875 -36.828125 L 134.296875 -36.828125 C 159.710938 -36.828125 182.382812 -39.351562 202.3125 -44.40625 C 222.25 -49.457031 239.507812 -57.035156 254.09375 -67.140625 C 268.675781 -77.253906 280.734375 -89.890625 290.265625 -105.046875 C 299.796875 -120.210938 306.941406 -137.6875 311.703125 -157.46875 C 316.472656 -177.257812 318.859375 -199.429688 318.859375 -223.984375 C 318.859375 -244.773438 315.460938 -263.976562 308.671875 -281.59375 C 301.890625 -299.21875 291.710938 -314.597656 278.140625 -327.734375 C 264.566406 -340.878906 247.957031 -351.0625 228.3125 -358.28125 C 208.675781 -365.5 185.859375 -369.109375 159.859375 -369.109375 L 96.171875 -369.109375 Z M 96.171875 -36.828125 "/></g></g></g><g fill="#000000" fill-opacity="1"><g transform="translate(250.004969, 649.85222)"><g><path d="M 44.5 3.5 C 37.164062 3.5 33.5 1.164062 33.5 -3.5 L 33.5 -231.5 C 33.5 -233.832031 34.414062 -235.539062 36.25 -236.625 C 38.082031 -237.707031 40.832031 -238.25 44.5 -238.25 C 47.5 -238.25 49.914062 -237.707031 51.75 -236.625 C 53.582031 -235.539062 55.332031 -233.832031 57 -231.5 L 178.75 -43 L 178.75 -231.5 C 178.75 -233.832031 179.664062 -235.539062 181.5 -236.625 C 183.332031 -237.707031 186.082031 -238.25 189.75 -238.25 C 197.082031 -238.25 200.75 -236 200.75 -231.5 L 200.75 -3.5 C 200.75 -1.164062 199.832031 0.582031 198 1.75 C 196.164062 2.914062 193.5 3.5 190 3.5 C 187.332031 3.5 185.25 3.082031 183.75 2.25 C 182.25 1.414062 180.582031 -0.5 178.75 -3.5 L 55.5 -194.5 L 55.5 -3.5 C 55.5 -1.164062 54.582031 0.582031 52.75 1.75 C 50.914062 2.914062 48.164062 3.5 44.5 3.5 Z M 44.5 3.5 "/></g></g></g><g fill="#000000" fill-opacity="1"><g transform="translate(484.252186, 649.85222)"><g><path d="M 122.5 4.75 C 107 4.75 93.082031 1.75 80.75 -4.25 C 68.414062 -10.25 57.875 -18.664062 49.125 -29.5 C 40.375 -40.332031 33.625 -53.164062 28.875 -68 C 24.125 -82.832031 21.75 -99.164062 21.75 -117 C 21.75 -128.832031 22.789062 -140 24.875 -150.5 C 26.957031 -161 30.039062 -170.789062 34.125 -179.875 C 38.207031 -188.957031 43.164062 -197.039062 49 -204.125 C 54.832031 -211.207031 61.5 -217.332031 69 -222.5 C 76.5 -227.664062 84.75 -231.582031 93.75 -234.25 C 102.75 -236.914062 112.332031 -238.25 122.5 -238.25 C 137.664062 -238.25 151.375 -235.289062 163.625 -229.375 C 175.875 -223.457031 186.414062 -215.082031 195.25 -204.25 C 204.082031 -193.414062 210.832031 -180.582031 215.5 -165.75 C 220.164062 -150.914062 222.5 -134.664062 222.5 -117 C 222.5 -105.164062 221.414062 -93.957031 219.25 -83.375 C 217.082031 -72.789062 214 -62.957031 210 -53.875 C 206 -44.789062 201.082031 -36.664062 195.25 -29.5 C 189.414062 -22.332031 182.789062 -16.207031 175.375 -11.125 C 167.957031 -6.039062 159.832031 -2.125 151 0.625 C 142.164062 3.375 132.664062 4.75 122.5 4.75 Z M 122.5 -16.5 C 130 -16.5 137.039062 -17.5 143.625 -19.5 C 150.207031 -21.5 156.375 -24.457031 162.125 -28.375 C 167.875 -32.289062 173 -37.125 177.5 -42.875 C 182 -48.625 185.832031 -55.25 189 -62.75 C 192.164062 -70.25 194.625 -78.5 196.375 -87.5 C 198.125 -96.5 199 -106.332031 199 -117 C 199 -132.664062 197.125 -146.707031 193.375 -159.125 C 189.625 -171.539062 184.332031 -182.039062 177.5 -190.625 C 170.664062 -199.207031 162.582031 -205.75 153.25 -210.25 C 143.914062 -214.75 133.664062 -217 122.5 -217 C 114.832031 -217 107.664062 -216 101 -214 C 94.332031 -212 88.125 -209.039062 82.375 -205.125 C 76.625 -201.207031 71.457031 -196.375 66.875 -190.625 C 62.289062 -184.875 58.375 -178.289062 55.125 -170.875 C 51.875 -163.457031 49.414062 -155.25 47.75 -146.25 C 46.082031 -137.25 45.25 -127.5 45.25 -117 C 45.25 -101.164062 47.125 -87 50.875 -74.5 C 54.625 -62 59.957031 -51.457031 66.875 -42.875 C 73.789062 -34.289062 81.957031 -27.75 91.375 -23.25 C 100.789062 -18.75 111.164062 -16.5 122.5 -16.5 Z M 122.5 -16.5 "/></g></g></g><g fill="#000000" fill-opacity="1"><g transform="translate(713.249449, 649.85222)"><g><path d="M 91 3.75 C 83.664062 3.75 80 1.414062 80 -3.25 L 80 -214.25 L 11.25 -214.25 C 8.75 -214.25 6.957031 -215 5.875 -216.5 C 4.789062 -218 4.25 -220.582031 4.25 -224.25 C 4.25 -228.082031 4.789062 -230.707031 5.875 -232.125 C 6.957031 -233.539062 8.75 -234.25 11.25 -234.25 L 171 -234.25 C 173.5 -234.25 175.25 -233.539062 176.25 -232.125 C 177.25 -230.707031 177.75 -228.082031 177.75 -224.25 C 177.75 -220.582031 177.25 -218 176.25 -216.5 C 175.25 -215 173.5 -214.25 171 -214.25 L 102 -214.25 L 102 -3.25 C 102 -0.914062 101.082031 0.832031 99.25 2 C 97.414062 3.164062 94.664062 3.75 91 3.75 Z M 91 3.75 "/></g></g></g><g fill="#000000" fill-opacity="1"><g transform="translate(895.247298, 649.85222)"><g><path d="M 44.5 0 C 40.832031 0 38.082031 -0.832031 36.25 -2.5 C 34.414062 -4.164062 33.5 -6.664062 33.5 -10 L 33.5 -227.5 C 33.5 -229.832031 34.414062 -231.539062 36.25 -232.625 C 38.082031 -233.707031 40.832031 -234.25 44.5 -234.25 L 157.75 -234.25 C 160.25 -234.25 162.039062 -233.539062 163.125 -232.125 C 164.207031 -230.707031 164.75 -228.082031 164.75 -224.25 C 164.75 -220.582031 164.207031 -218 163.125 -216.5 C 162.039062 -215 160.25 -214.25 157.75 -214.25 L 55.5 -214.25 L 55.5 -134 L 141.25 -134 C 143.75 -134 145.539062 -133.289062 146.625 -131.875 C 147.707031 -130.457031 148.25 -127.832031 148.25 -124 C 148.25 -120.332031 147.707031 -117.75 146.625 -116.25 C 145.539062 -114.75 143.75 -114 141.25 -114 L 55.5 -114 L 55.5 -20 L 157.75 -20 C 160.25 -20 162.039062 -19.289062 163.125 -17.875 C 164.207031 -16.457031 164.75 -13.832031 164.75 -10 C 164.75 -6.332031 164.207031 -3.75 163.125 -2.25 C 162.039062 -0.75 160.25 0 157.75 0 Z M 44.5 0 "/></g></g></g><g fill="#000000" fill-opacity="1"><g transform="translate(1070.245256, 649.85222)"><g><path d="M 86 4.75 C 81 4.75 75.5 4.25 69.5 3.25 C 63.5 2.25 57.457031 0.625 51.375 -1.625 C 45.289062 -3.875 39.539062 -6.832031 34.125 -10.5 C 28.707031 -14.164062 24.082031 -18.664062 20.25 -24 C 19.082031 -25.664062 18.539062 -27.25 18.625 -28.75 C 18.707031 -30.25 19.914062 -32.164062 22.25 -34.5 C 24.582031 -37 26.539062 -38.375 28.125 -38.625 C 29.707031 -38.875 32.082031 -37.582031 35.25 -34.75 C 39.082031 -31.082031 43.5 -27.914062 48.5 -25.25 C 53.5 -22.582031 59.125 -20.457031 65.375 -18.875 C 71.625 -17.289062 78.5 -16.5 86 -16.5 C 95.164062 -16.5 103.125 -17.414062 109.875 -19.25 C 116.625 -21.082031 122.25 -23.875 126.75 -27.625 C 131.25 -31.375 134.625 -36.125 136.875 -41.875 C 139.125 -47.625 140.25 -54.414062 140.25 -62.25 C 140.25 -68.75 139.125 -74.332031 136.875 -79 C 134.625 -83.664062 131.375 -87.707031 127.125 -91.125 C 122.875 -94.539062 117.832031 -97.625 112 -100.375 C 106.164062 -103.125 99.664062 -105.582031 92.5 -107.75 C 86.332031 -109.75 80.082031 -112.039062 73.75 -114.625 C 67.414062 -117.207031 61.375 -120.375 55.625 -124.125 C 49.875 -127.875 44.789062 -132.332031 40.375 -137.5 C 35.957031 -142.664062 32.457031 -148.664062 29.875 -155.5 C 27.289062 -162.332031 26 -170.332031 26 -179.5 C 26 -189 27.664062 -197.332031 31 -204.5 C 34.332031 -211.664062 39.039062 -217.789062 45.125 -222.875 C 51.207031 -227.957031 58.375 -231.789062 66.625 -234.375 C 74.875 -236.957031 84 -238.25 94 -238.25 C 102.832031 -238.25 110.957031 -237.039062 118.375 -234.625 C 125.789062 -232.207031 132.664062 -228.957031 139 -224.875 C 145.332031 -220.789062 151.332031 -216.164062 157 -211 C 158.832031 -209.332031 159.582031 -207.625 159.25 -205.875 C 158.914062 -204.125 157.832031 -202.332031 156 -200.5 C 154 -198.332031 152.039062 -196.832031 150.125 -196 C 148.207031 -195.164062 146.332031 -195.414062 144.5 -196.75 C 139.832031 -200.582031 135 -204.039062 130 -207.125 C 125 -210.207031 119.539062 -212.625 113.625 -214.375 C 107.707031 -216.125 101.164062 -217 94 -217 C 86.832031 -217 80.5 -216.207031 75 -214.625 C 69.5 -213.039062 64.789062 -210.707031 60.875 -207.625 C 56.957031 -204.539062 54.039062 -200.625 52.125 -195.875 C 50.207031 -191.125 49.25 -185.664062 49.25 -179.5 C 49.25 -172.164062 50.414062 -165.875 52.75 -160.625 C 55.082031 -155.375 58.457031 -150.832031 62.875 -147 C 67.289062 -143.164062 72.5 -139.914062 78.5 -137.25 C 84.5 -134.582031 91 -132.164062 98 -130 C 105.332031 -127.664062 112.875 -124.875 120.625 -121.625 C 128.375 -118.375 135.457031 -114.207031 141.875 -109.125 C 148.289062 -104.039062 153.457031 -97.75 157.375 -90.25 C 161.289062 -82.75 163.25 -73.414062 163.25 -62.25 C 163.25 -51.25 161.5 -41.582031 158 -33.25 C 154.5 -24.914062 149.414062 -17.957031 142.75 -12.375 C 136.082031 -6.789062 127.957031 -2.539062 118.375 0.375 C 108.789062 3.289062 98 4.75 86 4.75 Z M 86 4.75 "/></g></g></g><g clip-path="url(#0e845850df)"><g transform="matrix(1, 0, 0, 1, 750, 750)"><g clip-path="url(#525f1548e2)"><g clip-path="url(#0314be2347)"><path fill="#000000" d="M 9.390625 626.195312 L 563.738281 626.195312 L 563.738281 580.804688 L 9.390625 580.804688 C 4.519531 580.804688 0.570312 576.855469 0.570312 571.984375 C 0.570312 567.113281 4.519531 563.164062 9.390625 563.164062 L 563.738281 563.164062 L 563.738281 8.820312 C 563.738281 3.949219 567.683594 0 572.554688 0 C 577.425781 0 581.375 3.949219 581.375 8.820312 L 581.375 563.164062 L 626.765625 563.164062 L 626.765625 8.820312 C 626.765625 3.949219 630.714844 0 635.585938 0 C 640.457031 0 644.40625 3.949219 644.40625 8.820312 L 644.40625 563.164062 L 705.066406 563.164062 C 709.9375 563.164062 713.886719 567.113281 713.886719 571.984375 C 713.886719 576.855469 709.9375 580.804688 705.066406 580.804688 L 644.40625 580.804688 L 644.40625 626.195312 L 705.066406 626.195312 C 709.9375 626.195312 713.886719 630.144531 713.886719 635.015625 C 713.886719 639.886719 709.9375 643.835938 705.066406 643.835938 L 644.40625 643.835938 L 644.40625 704.496094 C 644.40625 709.367188 640.457031 713.316406 635.585938 713.316406 C 630.714844 713.316406 626.765625 709.367188 626.765625 704.496094 L 626.765625 643.835938 L 581.375 643.835938 L 581.375 704.496094 C 581.375 709.367188 577.425781 713.316406 572.554688 713.316406 C 567.683594 713.316406 563.738281 709.367188 563.738281 704.496094 L 563.738281 643.835938 L 9.390625 643.835938 C 4.519531 643.835938 0.570312 639.886719 0.570312 635.015625 C 0.570312 630.144531 4.519531 626.195312 9.390625 626.195312 Z M 626.765625 626.195312 L 626.765625 580.804688 L 581.375 580.804688 L 581.375 626.195312 Z M 626.765625 626.195312 " fill-opacity="1" fill-rule="nonzero"/></g></g></g></g></svg>